<svg width="24" height="24" viewBox="0 0 24 24" fill="none" xmlns="http://www.w3.org/2000/svg">
<path fill-rule="evenodd" clip-rule="evenodd" d="M6.89355 7.48475L4.46946 5.06066L5.53012 4L19.5301 18L18.4695 19.0607L15.8264 16.4176C14.6652 17.0766 13.3683 17.5312 12 17.5312C7.02944 17.5312 3 11.5312 3 11.5312C3 11.5312 4.54141 9.23602 6.89355 7.48475ZM9.41563 10.0068C9.15155 10.4536 9 10.9747 9 11.5312C9 13.1881 10.3431 14.5312 12 14.5312C12.5565 14.5312 13.0777 14.3797 13.5244 14.1156L12.3891 12.9803C12.265 13.0135 12.1346 13.0312 12 13.0312C11.1716 13.0312 10.5 12.3597 10.5 11.5312C10.5 11.3967 10.5177 11.2662 10.551 11.1422L9.41563 10.0068Z" fill="#6C6F80"/>
<path d="M12.0615 8.53187L9.53291 6.00327C10.3169 5.70898 11.1445 5.53125 12 5.53125C16.9706 5.53125 21 11.5312 21 11.5312C21 11.5312 19.9269 13.1291 18.2052 14.6756L14.9994 11.4697C14.967 9.86174 13.6695 8.5642 12.0615 8.53187Z" fill="#6C6F80"/>
</svg>
