<svg width="400" height="48" viewBox="0 0 400 48" fill="none" xmlns="http://www.w3.org/2000/svg">
<rect width="400" height="48" fill="#303240"/>
<path fill-rule="evenodd" clip-rule="evenodd" d="M29 38V9.26343H34.2249V38H29Z" fill="#E1E3EB"/>
<path fill-rule="evenodd" clip-rule="evenodd" d="M45.9807 38V9.26343H47.2869V38H45.9807Z" fill="#E1E3EB"/>
<path fill-rule="evenodd" clip-rule="evenodd" d="M34.2248 9.26342L59.0427 9.26343L59.0427 11.8758L34.2248 11.8758L34.2248 9.26342Z" fill="#E1E3EB"/>
<path fill-rule="evenodd" clip-rule="evenodd" d="M38.1436 17.7538C38.1436 16.6717 38.9477 15.7945 39.9396 15.7945L50.7158 15.7945C51.7077 15.7945 52.5118 16.6717 52.5118 17.7538C52.5118 18.8359 51.7077 19.7131 50.7158 19.7131L39.9396 19.7131C38.9477 19.7131 38.1436 18.8359 38.1436 17.7538Z" fill="#E1E3EB"/>
<path fill-rule="evenodd" clip-rule="evenodd" d="M43.3682 25.591C43.3682 24.5089 44.2454 23.6317 45.3275 23.6317L57.0833 23.6317C58.1654 23.6317 59.0427 24.5089 59.0427 25.591C59.0427 26.6731 58.1654 27.5503 57.0833 27.5503L45.3275 27.5503C44.2454 27.5503 43.3682 26.6731 43.3682 25.591Z" fill="#E1E3EB"/>
<path fill-rule="evenodd" clip-rule="evenodd" d="M40.7559 32.1221C40.7559 31.04 41.56 30.1628 42.5519 30.1628L53.3281 30.1628C54.32 30.1628 55.1241 31.04 55.1241 32.1221C55.1241 33.2042 54.32 34.0814 53.3281 34.0814H42.5519C41.56 34.0814 40.7559 33.2042 40.7559 32.1221Z" fill="#E1E3EB"/>
<path d="M81.224 24.252C80.076 24.252 79.033 23.979 78.095 23.433C77.157 22.887 76.408 22.089 75.848 21.039C75.302 19.975 75.029 18.687 75.029 17.175C75.029 15.677 75.309 14.396 75.869 13.332C76.443 12.254 77.206 11.435 78.158 10.875C79.11 10.301 80.16 10.014 81.308 10.014C82.176 10.014 82.946 10.189 83.618 10.539C84.29 10.889 84.843 11.295 85.277 11.757L83.975 13.332C83.625 12.968 83.233 12.681 82.799 12.471C82.379 12.247 81.903 12.135 81.371 12.135C80.629 12.135 79.964 12.338 79.376 12.744C78.802 13.136 78.347 13.703 78.011 14.445C77.689 15.187 77.528 16.076 77.528 17.112C77.528 18.68 77.871 19.912 78.557 20.808C79.243 21.69 80.16 22.131 81.308 22.131C81.924 22.131 82.47 22.005 82.946 21.753C83.422 21.487 83.856 21.144 84.248 20.724L85.55 22.257C84.99 22.901 84.346 23.398 83.618 23.748C82.904 24.084 82.106 24.252 81.224 24.252ZM87.8426 24V10.266H90.2786V21.942H95.9906V24H87.8426ZM103.061 24.252C101.871 24.252 100.821 23.965 99.9114 23.391C99.0014 22.803 98.2874 21.977 97.7694 20.913C97.2654 19.835 97.0134 18.554 97.0134 17.07C97.0134 15.586 97.2654 14.319 97.7694 13.269C98.2874 12.219 99.0014 11.414 99.9114 10.854C100.821 10.294 101.871 10.014 103.061 10.014C104.265 10.014 105.322 10.294 106.232 10.854C107.142 11.414 107.849 12.219 108.353 13.269C108.871 14.319 109.13 15.586 109.13 17.07C109.13 18.554 108.871 19.835 108.353 20.913C107.849 21.977 107.142 22.803 106.232 23.391C105.322 23.965 104.265 24.252 103.061 24.252ZM103.061 22.131C104.139 22.131 105 21.676 105.644 20.766C106.288 19.842 106.61 18.61 106.61 17.07C106.61 15.53 106.288 14.326 105.644 13.458C105 12.576 104.139 12.135 103.061 12.135C101.983 12.135 101.122 12.576 100.478 13.458C99.8344 14.326 99.5124 15.53 99.5124 17.07C99.5124 18.61 99.8344 19.842 100.478 20.766C101.122 21.676 101.983 22.131 103.061 22.131ZM117.023 24.252C115.973 24.252 115.056 24.042 114.272 23.622C113.488 23.202 112.879 22.53 112.445 21.606C112.025 20.682 111.815 19.471 111.815 17.973V10.266H114.251V18.162C114.251 19.156 114.363 19.947 114.587 20.535C114.825 21.109 115.154 21.522 115.574 21.774C115.994 22.012 116.477 22.131 117.023 22.131C117.583 22.131 118.073 22.012 118.493 21.774C118.927 21.522 119.263 21.109 119.501 20.535C119.753 19.947 119.879 19.156 119.879 18.162V10.266H122.21V17.973C122.21 19.471 122 20.682 121.58 21.606C121.16 22.53 120.558 23.202 119.774 23.622C119.004 24.042 118.087 24.252 117.023 24.252ZM125.639 24V10.266H129.314C131.414 10.266 133.052 10.833 134.228 11.967C135.404 13.101 135.992 14.802 135.992 17.07C135.992 19.352 135.411 21.081 134.249 22.257C133.087 23.419 131.484 24 129.44 24H125.639ZM128.075 22.026H129.146C130.532 22.026 131.603 21.627 132.359 20.829C133.115 20.017 133.493 18.764 133.493 17.07C133.493 15.39 133.115 14.165 132.359 13.395C131.603 12.625 130.532 12.24 129.146 12.24H128.075V22.026ZM144.518 24.252C143.286 24.252 142.18 23.979 141.2 23.433C140.22 22.887 139.45 22.089 138.89 21.039C138.33 19.975 138.05 18.687 138.05 17.175C138.05 15.677 138.337 14.396 138.911 13.332C139.485 12.254 140.262 11.435 141.242 10.875C142.222 10.301 143.321 10.014 144.539 10.014C145.519 10.014 146.345 10.196 147.017 10.56C147.703 10.91 148.263 11.309 148.697 11.757L147.395 13.332C147.045 12.996 146.653 12.716 146.219 12.492C145.799 12.254 145.267 12.135 144.623 12.135C143.405 12.135 142.418 12.583 141.662 13.479C140.92 14.361 140.549 15.572 140.549 17.112C140.549 18.68 140.906 19.912 141.62 20.808C142.334 21.69 143.377 22.131 144.749 22.131C145.141 22.131 145.512 22.082 145.862 21.984C146.212 21.872 146.499 21.718 146.723 21.522V18.561H144.119V16.566H148.907V22.614C148.445 23.076 147.829 23.468 147.059 23.79C146.303 24.098 145.456 24.252 144.518 24.252ZM154.641 16.692L154.158 18.372H157.665L157.182 16.692C156.958 15.964 156.741 15.215 156.531 14.445C156.335 13.675 156.139 12.912 155.943 12.156H155.859C155.677 12.926 155.481 13.696 155.271 14.466C155.075 15.222 154.865 15.964 154.641 16.692ZM150.042 24L154.515 10.266H157.371L161.844 24H159.282L158.211 20.283H153.591L152.52 24H150.042ZM163.537 24V10.266H166.036L170.32 17.994L171.727 20.913H171.811C171.755 20.213 171.685 19.45 171.601 18.624C171.531 17.798 171.496 17 171.496 16.23V10.266H173.827V24H171.328L167.044 16.272L165.637 13.353H165.553C165.609 14.081 165.672 14.844 165.742 15.642C165.826 16.44 165.868 17.224 165.868 17.994V24H163.537ZM180.09 24V12.324H176.121V10.266H186.495V12.324H182.526V24H180.09ZM191.554 24V12.324H187.585V10.266H197.959V12.324H193.99V24H191.554Z" fill="white"/>
<path d="M77.48 38.12C76.9067 38.12 76.3967 37.9867 75.95 37.72C75.5033 37.4467 75.1533 37.0567 74.9 36.55C74.6467 36.0433 74.52 35.4333 74.52 34.72C74.52 34.0133 74.65 33.4067 74.91 32.9C75.17 32.3933 75.5267 32.0033 75.98 31.73C76.4333 31.4567 76.95 31.32 77.53 31.32C77.9833 31.32 78.3633 31.4067 78.67 31.58C78.9833 31.7467 79.2333 31.93 79.42 32.13L78.96 32.67C78.7933 32.4967 78.6 32.35 78.38 32.23C78.16 32.11 77.8833 32.05 77.55 32.05C77.11 32.05 76.7267 32.16 76.4 32.38C76.0733 32.5933 75.82 32.8967 75.64 33.29C75.4667 33.6833 75.38 34.1533 75.38 34.7C75.38 35.5267 75.5667 36.1833 75.94 36.67C76.32 37.15 76.86 37.39 77.56 37.39C77.7933 37.39 78.0167 37.3567 78.23 37.29C78.4433 37.2167 78.6133 37.12 78.74 37V35.29H77.35V34.6H79.5V37.36C79.2933 37.58 79.0133 37.7633 78.66 37.91C78.3133 38.05 77.92 38.12 77.48 38.12ZM82.1119 38.12C81.7052 38.12 81.3652 38 81.0919 37.76C80.8252 37.5133 80.6919 37.1733 80.6919 36.74C80.6919 36.2067 80.9285 35.8 81.4019 35.52C81.8819 35.2333 82.6385 35.0333 83.6719 34.92C83.6719 34.7133 83.6419 34.5167 83.5819 34.33C83.5285 34.1433 83.4285 33.9933 83.2819 33.88C83.1419 33.76 82.9385 33.7 82.6719 33.7C82.3919 33.7 82.1285 33.7533 81.8819 33.86C81.6352 33.9667 81.4152 34.0867 81.2219 34.22L80.9019 33.65C81.1285 33.5033 81.4052 33.3633 81.7319 33.23C82.0652 33.09 82.4252 33.02 82.8119 33.02C83.4052 33.02 83.8352 33.2033 84.1019 33.57C84.3685 33.93 84.5019 34.4133 84.5019 35.02V38H83.8219L83.7519 37.42H83.7219C83.4952 37.6067 83.2452 37.77 82.9719 37.91C82.7052 38.05 82.4185 38.12 82.1119 38.12ZM82.3519 37.46C82.5852 37.46 82.8052 37.4033 83.0119 37.29C83.2185 37.1767 83.4385 37.0167 83.6719 36.81V35.46C82.8652 35.56 82.2985 35.71 81.9719 35.91C81.6519 36.11 81.4919 36.3667 81.4919 36.68C81.4919 36.9533 81.5752 37.1533 81.7419 37.28C81.9085 37.4 82.1119 37.46 82.3519 37.46ZM86.0309 38V33.14H86.7109L86.7809 33.84H86.8109C87.0443 33.6067 87.2909 33.4133 87.5509 33.26C87.8109 33.1 88.1076 33.02 88.4409 33.02C88.9543 33.02 89.3276 33.1833 89.5609 33.51C89.8009 33.83 89.9209 34.3 89.9209 34.92V38H89.1009V35.03C89.1009 34.5767 89.0276 34.2467 88.8809 34.04C88.7343 33.8333 88.5009 33.73 88.1809 33.73C87.9343 33.73 87.7109 33.7933 87.5109 33.92C87.3176 34.0467 87.0976 34.2333 86.8509 34.48V38H86.0309ZM93.0297 38.12C92.5097 38.12 92.1464 37.97 91.9397 37.67C91.7397 37.37 91.6397 36.98 91.6397 36.5V33.81H90.9197V33.19L91.6797 33.14L91.7797 31.78H92.4697V33.14H93.7797V33.81H92.4697V36.51C92.4697 36.81 92.523 37.0433 92.6297 37.21C92.743 37.37 92.9397 37.45 93.2197 37.45C93.3064 37.45 93.3997 37.4367 93.4997 37.41C93.5997 37.3767 93.6897 37.3467 93.7697 37.32L93.9297 37.94C93.7964 37.9867 93.6497 38.0267 93.4897 38.06C93.3364 38.1 93.183 38.12 93.0297 38.12ZM96.2133 38.12C95.6933 38.12 95.3299 37.97 95.1233 37.67C94.9233 37.37 94.8233 36.98 94.8233 36.5V33.81H94.1033V33.19L94.8633 33.14L94.9633 31.78H95.6533V33.14H96.9633V33.81H95.6533V36.51C95.6533 36.81 95.7066 37.0433 95.8133 37.21C95.9266 37.37 96.1233 37.45 96.4033 37.45C96.4899 37.45 96.5833 37.4367 96.6833 37.41C96.7833 37.3767 96.8733 37.3467 96.9533 37.32L97.1133 37.94C96.9799 37.9867 96.8333 38.0267 96.6733 38.06C96.5199 38.1 96.3666 38.12 96.2133 38.12ZM99.8455 38.12C99.4188 38.12 99.0321 38.02 98.6855 37.82C98.3388 37.62 98.0655 37.33 97.8655 36.95C97.6655 36.57 97.5655 36.1133 97.5655 35.58C97.5655 35.0333 97.6721 34.57 97.8855 34.19C98.1055 33.81 98.3921 33.52 98.7455 33.32C99.1055 33.12 99.4921 33.02 99.9055 33.02C100.225 33.02 100.499 33.0767 100.725 33.19C100.959 33.3033 101.159 33.4367 101.325 33.59L100.905 34.13C100.765 34.0033 100.615 33.9 100.455 33.82C100.302 33.74 100.129 33.7 99.9355 33.7C99.6421 33.7 99.3788 33.78 99.1455 33.94C98.9188 34.0933 98.7388 34.3133 98.6055 34.6C98.4788 34.88 98.4155 35.2067 98.4155 35.58C98.4155 36.1333 98.5521 36.5833 98.8255 36.93C99.1055 37.27 99.4688 37.44 99.9155 37.44C100.142 37.44 100.352 37.3933 100.545 37.3C100.739 37.2 100.909 37.0833 101.055 36.95L101.415 37.5C101.195 37.6933 100.952 37.8467 100.685 37.96C100.419 38.0667 100.139 38.12 99.8455 38.12ZM102.486 38V30.88H103.306V32.82L103.276 33.82C103.509 33.6 103.753 33.4133 104.006 33.26C104.266 33.1 104.563 33.02 104.896 33.02C105.409 33.02 105.783 33.1833 106.016 33.51C106.256 33.83 106.376 34.3 106.376 34.92V38H105.556V35.03C105.556 34.5767 105.483 34.2467 105.336 34.04C105.189 33.8333 104.956 33.73 104.636 33.73C104.389 33.73 104.166 33.7933 103.966 33.92C103.773 34.0467 103.553 34.2333 103.306 34.48V38H102.486ZM109.045 38.12C108.639 38.12 108.299 38 108.025 37.76C107.759 37.5133 107.625 37.1733 107.625 36.74C107.625 36.2067 107.862 35.8 108.335 35.52C108.815 35.2333 109.572 35.0333 110.605 34.92C110.605 34.7133 110.575 34.5167 110.515 34.33C110.462 34.1433 110.362 33.9933 110.215 33.88C110.075 33.76 109.872 33.7 109.605 33.7C109.325 33.7 109.062 33.7533 108.815 33.86C108.569 33.9667 108.349 34.0867 108.155 34.22L107.835 33.65C108.062 33.5033 108.339 33.3633 108.665 33.23C108.999 33.09 109.359 33.02 109.745 33.02C110.339 33.02 110.769 33.2033 111.035 33.57C111.302 33.93 111.435 34.4133 111.435 35.02V38H110.755L110.685 37.42H110.655C110.429 37.6067 110.179 37.77 109.905 37.91C109.639 38.05 109.352 38.12 109.045 38.12ZM109.285 37.46C109.519 37.46 109.739 37.4033 109.945 37.29C110.152 37.1767 110.372 37.0167 110.605 36.81V35.46C109.799 35.56 109.232 35.71 108.905 35.91C108.585 36.11 108.425 36.3667 108.425 36.68C108.425 36.9533 108.509 37.1533 108.675 37.28C108.842 37.4 109.045 37.46 109.285 37.46ZM112.965 38V33.14H113.645L113.715 34.02H113.745C113.911 33.7133 114.115 33.47 114.355 33.29C114.595 33.11 114.851 33.02 115.125 33.02C115.318 33.02 115.491 33.0533 115.645 33.12L115.485 33.84C115.405 33.8133 115.331 33.7933 115.265 33.78C115.198 33.7667 115.115 33.76 115.015 33.76C114.808 33.76 114.591 33.8433 114.365 34.01C114.145 34.1767 113.951 34.4667 113.785 34.88V38H112.965ZM117.961 38.12C117.441 38.12 117.078 37.97 116.871 37.67C116.671 37.37 116.571 36.98 116.571 36.5V33.81H115.851V33.19L116.611 33.14L116.711 31.78H117.401V33.14H118.711V33.81H117.401V36.51C117.401 36.81 117.455 37.0433 117.561 37.21C117.675 37.37 117.871 37.45 118.151 37.45C118.238 37.45 118.331 37.4367 118.431 37.41C118.531 37.3767 118.621 37.3467 118.701 37.32L118.861 37.94C118.728 37.9867 118.581 38.0267 118.421 38.06C118.268 38.1 118.115 38.12 117.961 38.12ZM122.882 32.86C122.882 33.04 122.909 33.2267 122.962 33.42C123.022 33.6133 123.099 33.81 123.192 34.01C123.492 33.81 123.752 33.6033 123.972 33.39C124.199 33.17 124.312 32.9167 124.312 32.63C124.312 32.4367 124.262 32.27 124.162 32.13C124.069 31.9833 123.912 31.91 123.692 31.91C123.446 31.91 123.249 32 123.102 32.18C122.956 32.36 122.882 32.5867 122.882 32.86ZM123.312 38.12C122.919 38.12 122.569 38.0433 122.262 37.89C121.962 37.73 121.729 37.5133 121.562 37.24C121.396 36.9667 121.312 36.6533 121.312 36.3C121.312 36.0067 121.372 35.7467 121.492 35.52C121.619 35.2933 121.779 35.09 121.972 34.91C122.166 34.73 122.376 34.5633 122.602 34.41C122.469 34.1367 122.362 33.8733 122.282 33.62C122.209 33.36 122.172 33.11 122.172 32.87C122.172 32.5767 122.236 32.3133 122.362 32.08C122.489 31.8467 122.666 31.6633 122.892 31.53C123.126 31.39 123.392 31.32 123.692 31.32C124.099 31.32 124.416 31.44 124.642 31.68C124.869 31.92 124.982 32.2333 124.982 32.62C124.982 32.9067 124.909 33.1633 124.762 33.39C124.616 33.6167 124.429 33.8233 124.202 34.01C123.982 34.1967 123.749 34.38 123.502 34.56C123.716 34.8933 123.969 35.22 124.262 35.54C124.556 35.8533 124.856 36.14 125.162 36.4C125.362 36.1267 125.539 35.83 125.692 35.51C125.852 35.1833 125.982 34.8333 126.082 34.46H126.852C126.726 34.8867 126.566 35.3 126.372 35.7C126.186 36.0933 125.962 36.4633 125.702 36.81C125.929 36.9633 126.146 37.0933 126.352 37.2C126.559 37.3067 126.752 37.3867 126.932 37.44L126.712 38.12C126.486 38.0533 126.242 37.96 125.982 37.84C125.729 37.7133 125.469 37.5567 125.202 37.37C124.956 37.5967 124.676 37.78 124.362 37.92C124.049 38.0533 123.699 38.12 123.312 38.12ZM122.112 36.25C122.112 36.6167 122.236 36.91 122.482 37.13C122.736 37.35 123.042 37.46 123.402 37.46C123.629 37.46 123.846 37.4133 124.052 37.32C124.266 37.2267 124.466 37.0967 124.652 36.93C124.332 36.65 124.022 36.3433 123.722 36.01C123.429 35.6767 123.166 35.3333 122.932 34.98C122.706 35.1667 122.512 35.3633 122.352 35.57C122.192 35.77 122.112 35.9967 122.112 36.25ZM131.348 38V32.14H129.368V31.44H134.168V32.14H132.188V38H131.348ZM135.657 38.12C135.25 38.12 134.91 38 134.637 37.76C134.37 37.5133 134.237 37.1733 134.237 36.74C134.237 36.2067 134.473 35.8 134.947 35.52C135.427 35.2333 136.183 35.0333 137.217 34.92C137.217 34.7133 137.187 34.5167 137.127 34.33C137.073 34.1433 136.973 33.9933 136.827 33.88C136.687 33.76 136.483 33.7 136.217 33.7C135.937 33.7 135.673 33.7533 135.427 33.86C135.18 33.9667 134.96 34.0867 134.767 34.22L134.447 33.65C134.673 33.5033 134.95 33.3633 135.277 33.23C135.61 33.09 135.97 33.02 136.357 33.02C136.95 33.02 137.38 33.2033 137.647 33.57C137.913 33.93 138.047 34.4133 138.047 35.02V38H137.367L137.297 37.42H137.267C137.04 37.6067 136.79 37.77 136.517 37.91C136.25 38.05 135.963 38.12 135.657 38.12ZM135.897 37.46C136.13 37.46 136.35 37.4033 136.557 37.29C136.763 37.1767 136.983 37.0167 137.217 36.81V35.46C136.41 35.56 135.843 35.71 135.517 35.91C135.197 36.11 135.037 36.3667 135.037 36.68C135.037 36.9533 135.12 37.1533 135.287 37.28C135.453 37.4 135.657 37.46 135.897 37.46ZM141.726 38.12C141.499 38.12 141.263 38.0667 141.016 37.96C140.776 37.8467 140.549 37.6933 140.336 37.5H140.306L140.236 38H139.576V30.88H140.396V32.82L140.376 33.7C140.596 33.5067 140.836 33.3467 141.096 33.22C141.363 33.0867 141.629 33.02 141.896 33.02C142.529 33.02 143.009 33.2433 143.336 33.69C143.663 34.1367 143.826 34.7367 143.826 35.49C143.826 36.0433 143.726 36.5167 143.526 36.91C143.333 37.3033 143.076 37.6033 142.756 37.81C142.443 38.0167 142.099 38.12 141.726 38.12ZM141.586 37.43C141.986 37.43 142.316 37.26 142.576 36.92C142.843 36.5733 142.976 36.1 142.976 35.5C142.976 34.9667 142.876 34.5367 142.676 34.21C142.483 33.8767 142.156 33.71 141.696 33.71C141.489 33.71 141.279 33.7667 141.066 33.88C140.853 33.9933 140.629 34.1567 140.396 34.37V36.92C140.609 37.1067 140.819 37.24 141.026 37.32C141.239 37.3933 141.426 37.43 141.586 37.43ZM145.973 38.12C145.667 38.12 145.443 38.0267 145.303 37.84C145.17 37.6467 145.103 37.3733 145.103 37.02V30.88H145.923V37.08C145.923 37.2067 145.947 37.3 145.993 37.36C146.04 37.4133 146.093 37.44 146.153 37.44C146.18 37.44 146.203 37.44 146.223 37.44C146.25 37.4333 146.287 37.4267 146.333 37.42L146.443 38.04C146.39 38.0667 146.327 38.0867 146.253 38.1C146.18 38.1133 146.087 38.12 145.973 38.12ZM149.622 38.12C149.189 38.12 148.795 38.02 148.442 37.82C148.089 37.6133 147.809 37.32 147.602 36.94C147.395 36.56 147.292 36.1067 147.292 35.58C147.292 35.0467 147.395 34.59 147.602 34.21C147.815 33.83 148.089 33.5367 148.422 33.33C148.755 33.1233 149.105 33.02 149.472 33.02C150.092 33.02 150.569 33.2267 150.902 33.64C151.242 34.0533 151.412 34.6067 151.412 35.3C151.412 35.3867 151.409 35.4733 151.402 35.56C151.402 35.64 151.395 35.71 151.382 35.77H148.102C148.135 36.2833 148.295 36.6933 148.582 37C148.875 37.3067 149.255 37.46 149.722 37.46C149.955 37.46 150.169 37.4267 150.362 37.36C150.562 37.2867 150.752 37.1933 150.932 37.08L151.222 37.62C151.015 37.7533 150.779 37.87 150.512 37.97C150.252 38.07 149.955 38.12 149.622 38.12ZM148.092 35.18H150.692C150.692 34.6867 150.585 34.3133 150.372 34.06C150.165 33.8 149.872 33.67 149.492 33.67C149.152 33.67 148.845 33.8033 148.572 34.07C148.305 34.33 148.145 34.7 148.092 35.18Z" fill="white"/>
</svg>
